<?xml version="1.0" encoding="utf-8"?>
<!-- Generator: Adobe Illustrator 22.0.1, SVG Export Plug-In . SVG Version: 6.00 Build 0)  -->
<svg version="1.1" id="Layer_1" xmlns="http://www.w3.org/2000/svg" xmlns:xlink="http://www.w3.org/1999/xlink" x="0px" y="0px"
	 viewBox="0 0 1000 1000" style="enable-background:new 0 0 1000 1000;" xml:space="preserve">
<path d="M593.2,559.7c-1-17-0.5-34.3-6.4-50.8c-3.1-8.6-4.4-11.8-18.9-10.3c-17.6,1.8-160.8,34.8-166.4,36.2
	c-7.9,2-12.5,6.4-14.1,14.2c-2.7,12.4-5.9,24.6-8.1,37.1c-2.5,14.2-3.7,28.6-6.1,42.8c-3.4,19.8-7.4,39.5-11,59.3
	c-4.5,24.6-12.5,48.4-18.3,72.7c-0.7,2.9-1.1,5.8-1.6,8.8c-1.5,9.3-5.6,17.3-12.5,23.7c-5.1,4.8-10.2,9.7-15.8,13.8
	c-5.2,3.8-11,6.8-16.9,9.6c-7.1,3.3-14.6,5.9-21.9,8.8c-11.4,4.5-23.3,4.1-35.2,4.7c-12.6,0.6-24.6-2.8-36.3-6.3
	c-9.7-2.9-16.8-10.7-22.4-19.7c-2.4-10.5-2.4-10.5-2.9-16.9c-0.9-12.7,3.3-21.4,8.5-32.3c3.3-6.7,13.4-14.3,18.7-19.8
	c4.7-4.9,9.6-10.1,15.4-13.4c8.3-4.6,17.4-7.6,26.2-11.3c1.9-0.8,3.9-1.5,5.8-2.2c6.4-2.5,10.4-7.1,12.3-13.7
	c4.5-15.3,9-30.5,14-45.7c3.8-11.6,8.5-22.8,12.3-34.4c4.3-13.2,8-26.5,11.8-39.8c6.2-21.6,12.2-43.1,18.3-64.7
	c3.5-12.4,6.7-25,10.8-37.2c3.8-11.2,8.7-22.1,13.1-33.1c1.5-3.8,4.6-4.9,8.4-5.4c26.8-4,53.6-8.3,80.4-12.2
	c46.8-6.7,93.5-13.3,140.3-19.8c24.6-3.4,49.3-6.7,74-9.9c1.4-0.2,3.4,0.2,4.4,1.1c5.6,5.4,6.9,8.2,10.9,19.5
	c6,16.6,9.2,26,9.3,38.5c0.1,13.4,1,26.8,1,40.2c-0.1,12.3-1.2,24.7-1.4,37c-0.2,11.7,0.1,23.5,0.1,35.3c0,7.7-0.1,15.5-0.4,23.2
	c-0.3,5.8-0.9,11.5-1.5,17.2c-1.3,12.8-2.6,25.7-4,38.5c-1.6,14.3-2.9,28.7-5.2,43c-1.6,10-3.9,20-6.8,29.7
	c-4.2,13.7-8.9,27.3-14.1,40.7c-2.1,5.5-5.7,10.5-9.2,15.3c-14.4,19.2-32.5,34-54.8,42.9c-6.3,2.5-13.5,3.1-20.4,4.2
	c-5.7,0.9-11.6,0.7-17.3,1.8c-8.4,1.6-16.2-0.1-23.8-3.3c-6.7-2.8-13.8-4.3-19.7-9.2c-16.8-14.1-20.8-32.3-14.3-52.7
	c6-18.8,18.3-33.2,35-42.3c11.9-6.5,25.9-9.5,39.1-13.2c11.7-3.2,22.8-7.4,33.8-12.5c6.7-3.1,8.5-7.2,8.2-13.6c-0.2-4,0.1-8-0.1-12
	C597.1,655.4,593.6,566.4,593.2,559.7z"/>
<polygon points="685.7,515.4 717.7,498.5 766.2,466 805,446 837,435.4 832.7,490 828.1,553.7 825.2,586.1 786.4,563.5 723.3,531.7 
	"/>
<path d="M466.3,346.9c-6.6,20.1-13.1,33-28.4,45.6c-15.3,12.5-33.6,12.8-55.1,10.9c-21.5-1.9-34.4-11.6-47.3-26.6
	c-12.9-15-27.6-28.9-25.7-49.9c1.4-15.8,11.2-40.1,20.7-51.5c15.8-19,39-26,65.9-23.6c10.7,1,21.9,4.1,30.9,8.8
	c13.2,6.9,24.4,17.8,31.7,30.5C466.5,303.9,473.4,325.4,466.3,346.9z"/>
<path d="M696.9,268.2c-3.4,38-17.9,69.9-48.4,88c-19.9,11.8-44.9,24-68.2,15.5c-47.7-17.5-86.7-33-92.4-63.3
	c-5.6-30-13.2-38.9-11.3-60.5c1.6-18.2,15.5-36.6,24.4-51.2c9.2-15,20.7-30.1,35.4-39.4c20.4-12.9,38-15.4,64-13.1
	c12.8,1.1,30.3,12.3,41.4,17.2c21.6,9.6,34.2,17.7,46.2,37.6C700.2,219.1,699.1,243.2,696.9,268.2z"/>
</svg>
