<?xml version="1.0" encoding="utf-8"?>
<!-- Generator: Adobe Illustrator 22.0.1, SVG Export Plug-In . SVG Version: 6.00 Build 0)  -->
<svg version="1.1" id="Layer_1" xmlns="http://www.w3.org/2000/svg" xmlns:xlink="http://www.w3.org/1999/xlink" x="0px" y="0px"
	 viewBox="0 0 1000 1000" style="enable-background:new 0 0 1000 1000;" xml:space="preserve">
<g>
	<path d="M587.6,495.5c-0.8-13.6-0.4-27.5-5.2-40.7c-2.5-6.9-3.5-9.5-15.2-8.3c-14.1,1.5-128.8,27.8-133.3,29
		c-6.3,1.6-10,5.1-11.3,11.4c-2.1,9.9-4.7,19.7-6.5,29.7c-2,11.4-3,22.9-4.9,34.3c-2.7,15.9-5.9,31.6-8.8,47.5
		c-3.6,19.7-10,38.7-14.6,58.2c-0.6,2.3-0.9,4.7-1.3,7c-1.2,7.4-4.5,13.8-10,19c-4.1,3.8-8.1,7.8-12.7,11.1c-4.2,3-8.8,5.5-13.5,7.7
		c-5.7,2.6-11.7,4.8-17.5,7.1c-9.1,3.6-18.7,3.3-28.2,3.7c-10.1,0.5-19.7-2.2-29-5c-7.7-2.3-13.5-8.6-17.9-15.8
		c-1.9-8.4-1.9-8.4-2.3-13.5c-0.8-10.1,2.6-17.1,6.8-25.9c2.6-5.4,10.7-11.4,15-15.9c3.8-3.9,7.7-8.1,12.4-10.7
		c6.6-3.7,14-6.1,21-9.1c1.5-0.6,3.1-1.2,4.7-1.8c5.1-2,8.3-5.7,9.9-11c3.6-12.2,7.2-24.4,11.2-36.6c3-9.3,6.8-18.3,9.8-27.6
		c3.4-10.5,6.4-21.2,9.5-31.9c4.9-17.3,9.8-34.6,14.7-51.8c2.8-10,5.3-20,8.6-29.8c3-9,7-17.7,10.5-26.5c1.2-3.1,3.7-3.9,6.8-4.3
		c21.5-3.2,42.9-6.7,64.4-9.8c37.5-5.4,74.9-10.6,112.4-15.9c19.7-2.8,39.5-5.4,59.3-8c1.1-0.1,2.7,0.2,3.5,0.9
		c4.4,4.3,5.5,6.6,8.7,15.6c4.8,13.3,7.4,20.8,7.4,30.9c0.1,10.7,0.8,21.5,0.8,32.2c0,9.9-0.9,19.8-1.1,29.7
		c-0.2,9.4,0.1,18.8,0.1,28.2c0,6.2-0.1,12.4-0.3,18.6c-0.2,4.6-0.7,9.2-1.2,13.8c-1,10.3-2.1,20.6-3.2,30.8
		c-1.3,11.5-2.3,23-4.1,34.4c-1.3,8-3.1,16-5.5,23.8c-3.3,11-7.1,21.9-11.3,32.6c-1.7,4.4-4.5,8.4-7.4,12.2
		c-11.5,15.4-26,27.2-43.9,34.4c-5.1,2-10.8,2.5-16.3,3.3c-4.6,0.7-9.3,0.6-13.8,1.5c-6.8,1.3-13-0.1-19.1-2.7
		c-5.3-2.2-11.1-3.4-15.8-7.4c-13.4-11.3-16.7-25.9-11.4-42.2c4.8-15.1,14.7-26.6,28.1-33.9c9.5-5.2,20.7-7.6,31.4-10.6
		c9.4-2.6,18.3-5.9,27.1-10c5.4-2.5,6.8-5.8,6.6-10.9c-0.2-3.2,0.1-6.4-0.1-9.6C590.7,572.2,587.9,500.9,587.6,495.5z"/>
	<polygon points="661.6,460.1 687.3,446.5 726.1,420.5 757.2,404.4 782.9,395.9 779.4,439.7 775.7,490.7 773.4,516.7 742.3,498.6 
		691.8,473.1 	"/>
	<path d="M486,325.1c-5.2,16.1-10.5,26.4-22.7,36.5c-12.3,10-26.9,10.2-44.2,8.7c-17.2-1.5-27.5-9.3-37.8-21.3
		c-10.3-12-22.1-23.1-20.6-40c1.1-12.6,9-32.1,16.6-41.3c12.6-15.2,31.2-20.8,52.8-18.9c8.6,0.8,17.5,3.3,24.7,7
		c10.6,5.5,19.5,14.3,25.4,24.4C486.1,290.6,491.6,307.9,486,325.1z"/>
	<path d="M670.6,262.1c-2.7,30.5-14.3,56-38.8,70.5c-15.9,9.4-36,19.2-54.6,12.4c-38.2-14-69.4-26.5-74-50.7
		c-4.5-24-10.5-31.1-9-48.4c1.3-14.5,12.4-29.3,19.6-41c7.4-12,16.5-24.1,28.3-31.6c16.4-10.4,30.5-12.3,51.2-10.5
		c10.3,0.9,24.3,9.8,33.2,13.8c17.3,7.7,27.4,14.2,37,30.1C673.3,222.7,672.4,242,670.6,262.1z"/>
	<g>
		<path d="M153.6,828.2c1.9,0.3,4.7,2.2,4.8,3.3c0,0.4,0.3,0.5,0.8,0.2c0.4-0.2,2.4-0.7,4.5-1c12.7-1.9,22,7.4,19.6,19.5
			c-1.5,7.7-9,16.2-16.7,19.1c-3.5,1.3-6.7,1.9-9.5,1.7v0c-3.8-0.2-7.3-1.6-9.9-3.9c-4.3-3.8-5.9-8.9-5.6-17.6
			c0.3-8.1,2-13.7,5.5-18.2c1.5-1.9,3-2.9,4.8-3.1C152.3,828.1,153,828.1,153.6,828.2z M156.3,840c-2.5,1.1-2.7,1.6-2.6,8.5
			c0.1,5.8,0.8,8.3,2.4,8.9c1.7,0.5,5.9-0.5,8.1-1.9c2.5-1.7,5.9-5.7,6.5-7.7c1.2-4.1-0.7-6.1-6.3-6.4c-3.2-0.2-5.3-0.8-5.7-1.7
			c-0.1-0.2-0.3-0.3-0.6-0.3C157.7,839.4,157.2,839.6,156.3,840z"/>
		<path d="M207.7,819.4c1,0.1,2,0.6,3,1.5c1.4,1.3,1.5,1.6,1.6,4l0,2.6l1.4-1.7c2.1-2.5,3.9-3.5,6.8-3.8c2.3-0.3,2.9-0.1,4.6,0.8
			c2.2,1.2,4,3.5,5.2,6.7c2,5.1,4.8,14.4,6,20c2.5,11.6,2.5,11.1,1.8,12.6c-0.8,1.8-2.5,3-4.6,3.2c-1.4,0.2-2.1,0-3.3-1
			c-1.6-1.3-2.7-3.4-4.8-9.9c-1.6-4.8-4.8-12.7-5.1-12.6c-0.1,0-1.1,1.5-2.2,3.3c-2.8,4.6-4.9,10.4-5.2,14.3c-0.3,3.8-1,5.2-3.5,6.9
			c-1.5,1-2.3,1.2-3.9,1.1c-2.4-0.1-5.3-2-6.3-4.2c-0.8-1.7-1-6.2-0.3-9.2c0.7-3.3,2.4-20.1,2.4-24c0.1-6.3,0.6-8.1,3.2-9.6
			c0.9-0.5,1.7-0.8,2.5-0.8C207.2,819.4,207.5,819.4,207.7,819.4z"/>
		<path d="M280.7,804L280.7,804c6.2,0,10.4,4.3,10,10.3c-0.5,7.1-6.2,16.9-12.8,22.2c-3.9,3.2-5.8,4.1-9.2,4.4l-2.7,0.3l-0.1,1.9
			c-0.4,9.1,3,13.3,10.8,13.2c2.7-0.1,4.7-0.7,10.4-3.5c1.8-0.9,2.6-1.1,3.9-0.9c3.8,0.6,5.5,4.8,3.3,8c-1.4,1.9-7.4,5.9-11,7.2
			c-3.1,1.1-9.8,1.9-13,1.4v0c-5.5-0.9-11.7-4.8-14.6-9.3c-2.7-4.2-3.3-6.1-3.9-12c-0.7-6.8,0-12,2.3-18.3
			c4.2-11.6,16.3-23.4,25-24.9C279.6,804.1,280.1,804,280.7,804z M268.1,830c6.3-2.4,12.3-10.1,6.9-11.9
			C272.6,818.2,269.9,824.2,268.1,830z"/>
		<path d="M332.7,761.9c1,1.8,1.1,3,0.6,5.3c-0.2,1-0.7,6-0.9,11c-0.3,5-0.7,10.6-0.8,12.4c-0.2,1.8-0.3,3.4-0.3,3.7
			c0,0.4,1.2,0.5,4,0.3c2.2-0.1,4.7,0,5.6,0.3c2.3,0.7,3.7,2.6,3.7,5c0,3.1-1.2,4.2-7.5,6.7c-3,1.2-5.7,2.3-6.2,2.4
			c-0.7,0.2-0.9,1.1-1.3,5.6c-0.6,7.1-4.3,35.5-5,37.6c-0.8,2.5-2,3.5-4.6,3.8c-1.9,0.2-2.3,0.1-3.8-1.1l-1.7-1.3l-0.2-4.8
			c-0.3-6.1,0-19.1,0.6-28.5l0.4-7.2l-3.1-0.2c-4.6-0.2-7.2-0.9-8.9-2.3c-1.8-1.4-2.4-3.1-2.1-5.3c0.5-3.3,5.1-6,8.6-5.1
			c0.6,0.2,2.2,0,3.9-0.5l2.8-0.7l0.3-1.8c0.9-6.6,4.4-26.3,5.2-30.2c1.1-4.9,1.6-5.9,3.3-7.1c0.6-0.4,1.3-0.6,2-0.7
			C329.4,759,331.7,760,332.7,761.9z"/>
		<path d="M423.7,794.2c0.3,0,0.5,0,0.8,0c1.5,0.1,2,0.4,3.2,1.7l1.5,1.6l-0.4,3.5c-0.4,3.6-3.6,16.3-5.8,23.7
			c-6.3,20.3-10.4,24.8-18.7,19.9c-3.1-1.8-5.2-3.7-10.1-8.9l-3-3.1l-1.2,2.5c-4.7,9.5-6.5,12.7-7.9,14c-1.4,1.3-1.8,1.4-4.4,1.4
			c-1.9,0-3.4-0.2-4.3-0.7c-4.1-2-9.2-9.8-14-21.1c-2.7-6.3-3.3-7.3-4.1-7.4c-0.5,0-1.7-0.7-2.5-1.6l-1.5-1.5l0.2-4.6
			c0.3-5.1,0.8-6.7,3-8c1.7-1,5-0.8,6.4,0.3c1.3,1.1,3.8,5.4,5.6,9.8c1.4,3.5,7.2,14.9,8.4,16.6l0.7,1.1l0.7-1.2
			c0.4-0.7,2.1-4.6,3.9-8.8c1.8-4.2,3.6-8.1,4.1-8.7c0.9-1.2,3.7-2.4,5.4-2.3c2.4,0.1,3.7,1.2,8.1,6.5c5.9,7.2,9.4,11.1,9.8,10.8
			c0.9-0.5,8.1-20.6,10.7-29.6c0.5-1.6,1.1-3.4,1.4-3.9C420.2,795.1,421.8,794.4,423.7,794.2L423.7,794.2z"/>
		<path d="M455.8,795.8c1.9,0.3,4.7,2.2,4.8,3.3c0,0.4,0.3,0.5,0.8,0.2c0.4-0.2,2.4-0.7,4.5-1c12.7-1.9,22,7.4,19.6,19.5
			c-1.5,7.7-9,16.2-16.7,19.1c-3.5,1.3-6.7,1.9-9.5,1.7v0c-3.8-0.2-7.3-1.6-9.9-3.9c-4.3-3.8-5.9-8.9-5.6-17.6
			c0.3-8.1,2-13.7,5.5-18.2c1.5-1.9,3-2.9,4.8-3.1C454.5,795.6,455.1,795.7,455.8,795.8z M458.5,807.5c-2.5,1.1-2.7,1.6-2.6,8.5
			c0.1,5.8,0.8,8.3,2.4,8.9c1.7,0.5,5.9-0.5,8.1-1.9c2.5-1.6,5.9-5.7,6.5-7.7c1.2-4.1-0.7-6.1-6.3-6.4c-3.2-0.2-5.3-0.8-5.8-1.7
			c-0.1-0.2-0.3-0.3-0.6-0.3C459.9,806.9,459.4,807.1,458.5,807.5z"/>
		<path d="M594.6,786.1c2.8,3.2,7.2,10.5,9.9,16.4c2.3,5.1,4.9,12.7,5.2,15.4c0.4,4.2-3.7,7.1-7.5,5.3c-1.8-0.8-2.1-1.3-4.1-6.8
			c-0.8-2.4-2.4-6-3.5-8c-2.1-3.9-6.3-10.8-7-11.3c-0.5-0.4-1.9,3.2-3.6,8.9c-0.6,2.1-1.8,5.9-2.7,8.4c-0.9,2.5-1.6,5.1-1.7,5.7
			c-0.4,2.5-3.5,5.5-6.1,5.8c-1.7,0.2-4.8-1.2-5.9-2.6c-0.6-0.7-1.7-3.3-2.5-5.6c-1.6-4.5-5.3-14-6.3-15.9l-0.6-1.1l-1.7,2.3
			c-1.2,1.7-2.8,5.3-5.5,12.7c-3.3,9.1-4,10.6-5.3,11.7c-3.1,2.6-7.4,1.9-9.5-1.6c-1.1-1.8-1.2-2.6-2.4-12.7
			c-0.8-6.6-1.4-11-1.8-11.5c-0.8-1.1-0.9-2.7-0.3-4.6c0.3-0.9,0.7-2.3,1-3.1c0.5-1.7,2.5-3.4,4.3-3.6c1.6-0.2,3.9,0.9,4.8,2.2
			c0.4,0.5,0.9,2.1,1.2,3.6l0.5,2.7l1.1-2c2.3-4,4.7-6.6,8.2-8.7c4.3-2.6,6.7-3,10.1-1.6c3.3,1.4,4.8,3,7.7,8.7l1.7,3.3l2.1-5.6
			c2.1-5.5,4.3-9.2,6-10.4c1-0.7,2.1-1.1,3.3-1.3C587.3,780.5,591.2,782.3,594.6,786.1z"/>
		<path d="M664,770.2c0.8,0,1.6,0.1,2.3,0.4c0.7,0.3,1.9,1.2,2.7,2l1.4,1.4l1,10.5c0.6,5.8,1.3,15.1,1.6,20.7l0.5,10.2L672,817
			c-1.2,1.3-1.8,1.6-3.3,1.8c-1.2,0.1-2.3,0-3.1-0.6c-2-1.3-2.8-2.8-3.5-7.6l-0.7-4.5l-0.7,1.3c-2.6,4.6-8.5,10.8-11.9,12.4
			c-2.2,1-7.9,1.7-10.9,1.2c-7.1-1.1-12.1-5.9-14.9-14.1c-1.5-4.5-1.8-13.3-0.5-19c1.5-6.9,3-10.2,5.5-12.1c2.7-2.1,5.7-1.5,7.6,1.5
			l1.1,1.8l-0.6,3c-0.3,1.7-0.8,3.3-1.2,3.6c-2,2.1-1.4,13.9,0.9,18c1.5,2.6,3,3.6,5.2,3.3c1.5-0.2,1.9-0.5,4-3.1
			c4.4-5.5,9.3-16.6,11.3-25.5c0.5-2.2,1.2-4.5,1.5-5.1c1-1.7,3.1-2.9,5.2-3.2C663.4,770.2,663.7,770.2,664,770.2z"/>
		<path d="M711.8,761.4c2.6,0.5,5.4,2.2,6.4,4.1c1,1.8,1.4,6.1,0.8,8.2c-1.5,5.5-10,5.2-10.6-0.4c-0.1-1-0.2-1.1-1.3-0.7
			c-0.6,0.2-1.6,1-2.2,1.7c-1,1.2-1,1.3-0.2,2c0.4,0.4,4.3,2.7,8.6,5.1c6.1,3.4,8.2,4.9,9.9,6.7c4.4,4.8,6,11.8,3.9,16.6
			c-1.3,3-5.2,7.6-8.1,9.5c-1.3,0.9-3.6,1.9-5.1,2.3c-3,0.8-2.9,0.8-5.5,0.6c-2.8-0.2-8-2.3-12.6-5c-5.5-3.3-7.4-4.9-8-6.8
			c-1.2-3.9,2.9-7.9,6.6-6.5c0.5,0.2,2.7,1.3,4.8,2.3c4.6,2.3,9,3.9,10.5,3.7c0.6-0.1,1.8-0.8,2.7-1.6c4.3-3.9,3.6-5.2-6.3-11
			c-7.4-4.4-12.4-8.3-14.2-11c-1.6-2.4-1.8-5.9-0.5-8.8c1.1-2.5,5.9-8,8.5-9.7c1-0.6,3.1-1.1,5.3-1.4
			C707.6,761.1,710.1,761.1,711.8,761.4z"/>
		<path d="M757,754.4c0.8,1.5,0.9,17.5,0.2,26.6c-0.9,11.4-3.3,27.6-4.4,29.3c-0.6,0.9-2.7,2.1-3.8,2.3c-0.1,0-1.1-0.3-2.2-0.7
			c-3.5-1.2-4.3-3.1-4.9-11.3c-0.9-12.3-0.1-21.2,3.5-39.9c1.6-8.2,2.3-9.7,5.1-10C753.6,750.3,755.5,751.4,757,754.4z M757.5,721.2
			c3.1,1.1,4.8,4.8,3.9,8.7c-1.1,5.1-5,7.7-9.1,5.9c-3.3-1.5-5-5.5-3.8-9.5c1-3.3,3.3-5.3,6.1-5.5
			C755.6,720.7,756.5,720.8,757.5,721.2z"/>
		<path d="M812.9,754.5c1,1.2,1.2,1.8,1.3,4.6c0.3,5.3-1.5,8.6-5,8.9c-1.8,0.1-3.3-0.5-4.6-2l-0.8-1l-2.1,2.1
			c-3.1,3-6.9,7.9-8.4,10.8c-1.7,3.4-3.1,8.3-2.9,10.6c0.2,1.7,0.3,2,1.7,2.7c2.3,1.2,4.2,1.4,9.7,1.1c4.7-0.3,5.2-0.4,11.7-2.8
			c6.1-2.2,6.9-2.5,8.4-2.1c3.2,0.7,5,4.3,3.6,7.3c-0.8,1.7-4.5,4-11.4,7.2c-4.9,2.3-5.4,2.4-10.9,3.1c-3.2,0.4-6.1,0.7-6.6,0.6
			c-0.5-0.1-2-0.2-3.3-0.3c-5.8-0.5-11.5-3.7-14.5-8c-2.9-4.2-3.1-11.2-0.5-18.7c1.7-5,3.8-8.7,7.3-12.8
			c6.4-7.5,13.7-12.7,19.4-13.8c0.4-0.1,0.8-0.1,1.1-0.1C808.9,751.7,811.3,752.7,812.9,754.5z"/>
	</g>
</g>
</svg>
